void playZeldaL(int buzzer,int tempo) {
int melody[] = {
  
  // Zelda's Lullaby - The Legend of Zelda Ocarina of Time. 
  // Score available at https://musescore.com/user/12754451/scores/2762776
  
  NOTE_E4,2, NOTE_G4,4,
  NOTE_D4,2, NOTE_C4,8, NOTE_D4,8, 
  NOTE_E4,2, NOTE_G4,4,
  NOTE_D4,-2,
  NOTE_E4,2, NOTE_G4,4,
  NOTE_D5,2, NOTE_C5,4,
  NOTE_G4,2, NOTE_F4,8, NOTE_E4,8, 
  NOTE_D4,-2,
  NOTE_E4,2, NOTE_G4,4,
  NOTE_D4,2, NOTE_C4,8, NOTE_D4,8, 
  NOTE_E4,2, NOTE_G4,4,
  NOTE_D4,-2,
  NOTE_E4,2, NOTE_G4,4,

  NOTE_D5,2, NOTE_C5,4,
  NOTE_G4,2, NOTE_F4,8, NOTE_E4,8, 
  NOTE_F4,8, NOTE_E4,8, NOTE_C4,2,
  NOTE_F4,2, NOTE_E4,8, NOTE_D4,8, 
  NOTE_E4,8, NOTE_D4,8, NOTE_A3,2,
  NOTE_G4,2, NOTE_F4,8, NOTE_E4,8, 
  NOTE_F4,8, NOTE_E4,8, NOTE_C4,4, NOTE_F4,4,
  NOTE_C5,-2, 
  
};

// sizeof gives the number of bytes, each int value is composed of two bytes (16 bits)
// there are two values per note (pitch and duration), so for each note there are four bytes
int notes=sizeof(melody)/sizeof(melody[0])/2; 

// this calculates the duration of a whole note in ms (60s/tempo)*4 beats
int wholenote = (60000 * 4) / tempo;

int divider = 0, noteDuration = 0;

play(buzzer, melody,noteDuration, wholenote, divider,notes);
  
}
